<?xml version="1.0" encoding="UTF-8" standalone="no"?>
<!-- Created with Inkscape (http://www.inkscape.org/) -->

<svg height="100" id="svg2" inkscape:export-filename="/media/dados/Htdocs/web/millerbarros.github.io/favicon.png" inkscape:export-xdpi="90" inkscape:export-ydpi="90" inkscape:version="0.91 r" sodipodi:docname="favicon.svg" version="1.1"
    viewBox="0 0 100 100" width="100" xmlns:cc="http://creativecommons.org/ns#" xmlns:dc="http://purl.org/dc/elements/1.1/" xmlns:inkscape="http://www.inkscape.org/namespaces/inkscape" xmlns:rdf="http://www.w3.org/1999/02/22-rdf-syntax-ns#"
    xmlns:sodipodi="http://sodipodi.sourceforge.net/DTD/sodipodi-0.dtd" xmlns:svg="http://www.w3.org/2000/svg" xmlns="http://www.w3.org/2000/svg">
    <defs id="defs4"/>
    <sodipodi:namedview bordercolor="#666666" borderopacity="1.0" id="base" inkscape:current-layer="layer1" inkscape:cx="49.186407" inkscape:cy="29.497085" inkscape:document-units="px" inkscape:pageopacity="0.0" inkscape:pageshadow="2"
        inkscape:window-height="691" inkscape:window-maximized="1" inkscape:window-width="1366" inkscape:window-x="0" inkscape:window-y="25" inkscape:zoom="1.5925397" pagecolor="#ffffff" showgrid="false" units="px"/>
    <metadata id="metadata7">
        <rdf:RDF>
            <cc:Work rdf:about="">
                <dc:format>image/svg+xml</dc:format>
                <dc:type rdf:resource="http://purl.org/dc/dcmitype/StillImage"/>
                <dc:title></dc:title>
            </cc:Work>
        </rdf:RDF>
    </metadata>
    <g id="layer1" inkscape:groupmode="layer" inkscape:label="Camada 1" transform="translate(0,-952.36216)">
        <path
            d="m 75.73241,959.40549 c -0.0544,0.74245 -0.13525,1.79034 -0.2461,2.84339 -0.10878,1.95816 -0.16406,5.00282 -0.16406,9.13672 0,3.58996 0.27247,7.77783 0.81641,12.56445 0.54393,4.67783 1.2508,9.68312 2.12109,15.01367 0.97908,5.22178 2.06702,10.66148 3.26367,16.31838 1.30544,5.5481 2.66585,10.9878 4.08008,16.3183 0.44417,1.5546 0.85024,2.9175 1.28516,4.4258 8.41335,-9.195 13.08928,-21.2008 13.11133,-33.664 -0.025,-17.53461 -9.23339,-33.93258 -24.26758,-42.95671 z m 4.22851,82.85841 c -1.67115,-6.4296 -3.3779,-13.7102 -5.12695,-22.0873 -2.06695,-9.8996 -3.75315,-20.77699 -5.05859,-32.63475 -0.21758,2.50209 -0.65392,5.43815 -1.30665,8.81055 -0.54393,3.2636 -1.41467,6.3635 -2.61132,9.3008 -1.19666,2.9372 -2.77231,5.4408 -4.73047,7.5078 -1.84938,1.9582 -4.2444,2.9355 -7.18164,2.9355 -2.06695,0 -4.40474,-1.0859 -7.01563,-3.2617 -2.61088,-2.1757 -5.16782,-4.7327 -7.66992,-7.6699 -2.39331,-3.046 -4.6225,-6.09265 -6.68945,-9.13868 -1.95816,-3.15481 -3.42717,-5.71176 -4.40625,-7.66992 0.43514,4.78662 1.14201,10.5521 2.12109,17.2969 1.08787,6.7448 2.7188,13.8706 4.89453,21.3769 0.21758,0.7615 0.43673,1.3598 0.6543,1.795 0.32636,0.3263 0.59688,0.7074 0.81445,1.1425 0.32636,0.4352 0.54551,0.9249 0.6543,1.4688 0.21757,0.4351 0.32617,1.142 0.32617,2.1211 0,1.4142 -0.54494,2.4488 -1.63281,3.1015 -1.08787,0.6528 -2.12053,0.9786 -3.09961,0.9786 -0.54393,0 -1.2508,-0.8155 -2.12109,-2.4473 -0.8703,-1.7406 -1.79631,-3.9717 -2.77539,-6.6914 -0.97909,-2.7197 -1.95842,-5.711 -2.9375,-8.9746 -0.97909,-3.3724 -1.90315,-6.6895 -2.77344,-9.9532 -0.76151,-3.2636 -1.4131,-6.3102 -1.95703,-9.1386 -0.54394,-2.93727 -0.81641,-5.27702 -0.81641,-7.0176 0,-2.82846 0.1086,-4.78518 0.32617,-5.87305 0.32636,-1.08787 0.76076,-1.90529 1.30469,-2.44922 l 0,-9.95313 c 0,-1.52301 0.38107,-2.66622 1.14258,-3.42773 0.87029,-0.87029 1.95823,-1.30469 3.26367,-1.30469 1.08787,0 2.33968,0.92406 3.75391,2.77344 1.41422,1.84938 2.93655,4.18912 4.56836,7.01758 1.74058,2.82845 3.53539,5.87507 5.38476,9.13867 1.84938,3.2636 3.64418,6.30826 5.38477,9.13672 1.84937,2.82851 3.59085,5.16821 5.22265,7.01761 1.74059,1.8493 3.37152,2.7734 4.89453,2.7734 1.41423,0 2.77464,-1.3051 4.08008,-3.916 1.30544,-2.7197 2.50198,-6.25596 3.58985,-10.60743 1.19665,-4.35147 2.22931,-9.30149 3.0996,-14.84961 0.8703,-5.54813 1.57912,-11.20501 2.12305,-16.97071 0,-0.65272 -0.0553,-1.35958 -0.16406,-2.12109 -0.10879,-0.87029 -0.16406,-1.79436 -0.16406,-2.77344 0,-0.46988 -0.0183,-0.91432 0.0522,-1.41239 -5.5775,-2.10017 -11.41859,-3.23091 -17.37835,-3.25167 -27.61424,0 -50.0000000000001,22.38576 -50.0000000000001,50.00004 0,27.6142 22.3857600000001,50 50.0000000000001,50 10.80915,-0.019 21.32121,-3.6027 29.96093,-10.0983 z"
            id="path3336" inkscape:connector-curvature="0" inkscape:export-xdpi="90" inkscape:export-ydpi="90" sodipodi:nodetypes="cscccccccccccscssccccccccssscscccsccsssscsccsccsccsccsccc" style="fill:#1a1a1a"/>
    </g>
</svg>
